<svg width="77" height="77" viewBox="0 0 77 77" fill="none" xmlns="http://www.w3.org/2000/svg">
<g clip-path="url(#clip0_2418_176)">
<path d="M38.445 27.388C38.0827 27.388 37.7224 27.3367 37.3745 27.2355C36.2768 26.9165 35.2588 26.3694 34.3873 25.6298C34.368 25.6134 34.3496 25.596 34.3324 25.5776C32.7764 24.1958 31.5388 22.4929 30.7048 20.5865C30.0214 19.1394 29.588 17.5868 29.4229 15.9948C29.4157 15.9231 29.4214 15.8505 29.4397 15.7807C29.9951 13.5819 31.32 11.6551 33.1743 10.3494C36.3322 8.11968 40.5518 8.11968 43.7097 10.3494C45.5638 11.6558 46.8892 13.5826 47.4457 15.7814C47.4637 15.8512 47.4697 15.9238 47.4631 15.9955C47.2975 17.5872 46.8641 19.1394 46.1812 20.5865C45.3624 22.4515 44.1607 24.1234 42.654 25.4939C41.7487 26.3011 40.6743 26.8956 39.5095 27.2335C39.1637 27.3348 38.8053 27.387 38.445 27.388ZM35.2048 24.7466C35.9368 25.3581 36.7878 25.8112 37.7037 26.0773C38.1869 26.2158 38.6992 26.2158 39.1823 26.0773C40.1777 25.7861 41.0953 25.276 41.8678 24.584C43.2364 23.3145 44.3334 21.7807 45.0926 20.0753C45.702 18.7844 46.0949 17.402 46.2554 15.9835C45.7548 14.0989 44.6071 12.4507 43.0132 11.3276C40.2728 9.39271 36.6112 9.39271 33.8707 11.3276C32.2774 12.4504 31.1302 14.0983 30.6299 15.9821C30.7905 17.4012 31.1835 18.7841 31.7934 20.0753C32.5608 21.8418 33.7073 23.4179 35.152 24.6918C35.171 24.7085 35.1888 24.7269 35.2048 24.7466Z" fill="#D7D7D7"/>
<path d="M30.02 16.5387H29.9751C29.6858 16.517 29.4533 16.2919 29.4218 16.0035C29.3215 15.0787 29.3257 14.1454 29.4346 13.2216C29.6575 10.4578 31.0376 7.91693 33.2347 6.22542C33.2653 6.19866 33.2975 6.17391 33.3311 6.15116C36.3622 3.90367 40.5057 3.90016 43.5407 6.14246C43.5808 6.17056 43.6156 6.19732 43.6484 6.22475C45.8454 7.9166 47.2255 10.4578 47.4486 13.2216C47.5578 14.1454 47.562 15.0787 47.4613 16.0035C47.4299 16.2919 47.1974 16.517 46.908 16.5387C46.6211 16.5546 46.3616 16.37 46.2824 16.0938C45.7964 14.167 44.6361 12.4781 43.0121 11.3329C40.2717 9.39803 36.6101 9.39803 33.8697 11.3329C32.2461 12.4776 31.0863 14.1661 30.6007 16.0925C30.5301 16.3554 30.2921 16.5384 30.02 16.5387ZM38.4432 8.67881C40.3296 8.67747 42.17 9.26205 43.71 10.3514C44.6956 11.0462 45.5401 11.9225 46.1981 12.9333C45.921 10.6466 44.7331 8.56842 42.9031 7.16944C42.8793 7.15105 42.8569 7.13097 42.8362 7.10923C40.2261 5.18288 36.6649 5.18422 34.0563 7.11258C34.0339 7.13348 34.0097 7.15255 33.9841 7.16944C32.1547 8.56808 30.9668 10.6453 30.689 12.9313C31.3467 11.9215 32.1907 11.0462 33.1759 10.3521C34.716 9.26255 36.5565 8.67781 38.4432 8.67881Z" fill="#D7D7D7"/>
<path d="M33.6253 7.29125C33.5693 7.29125 33.5134 7.28373 33.4594 7.26851C33.2461 7.20863 33.0829 7.03652 33.0345 6.82025C32.9447 6.422 32.8997 6.01488 32.9007 5.6066C32.8671 2.54405 35.3227 0.0339606 38.3852 0.000341137C41.4478 -0.0332784 43.9579 2.42228 43.9915 5.48483C43.992 5.52548 43.992 5.56596 43.9915 5.6066C43.9925 6.01488 43.9475 6.422 43.8577 6.82025C43.7837 7.1444 43.4609 7.34729 43.1366 7.27336C43.0245 7.24777 42.922 7.19056 42.8414 7.1086C40.2313 5.18226 36.6701 5.1836 34.0615 7.11195C33.9468 7.22903 33.7891 7.29393 33.6253 7.29125ZM38.4424 1.26316C36.0456 1.26718 34.1038 3.20975 34.101 5.6066V5.64607C36.7819 4.0698 40.1063 4.0698 42.7872 5.64607V5.60794C42.785 3.20958 40.8415 1.26567 38.4431 1.26316H38.4424Z" fill="#D7D7D7"/>
<path d="M42.2633 51.107C41.9718 51.1063 41.7228 50.8969 41.6719 50.6099L40.1612 42.024C39.816 41.3396 38.5736 41.4105 38.5602 41.4112C38.5291 41.4138 38.4976 41.4138 38.4665 41.4112C38.4558 41.4078 37.2121 41.3409 36.8675 42.024L35.3608 50.6085C35.3096 50.9251 35.0158 51.1438 34.6978 51.1016L29.3287 50.4694C29.0496 50.4359 28.8308 50.2138 28.8015 49.9341L27.8588 40.9689C27.8526 40.9104 27.855 40.8513 27.8662 40.7936L29.9529 29.7905C29.9983 29.5532 30.1811 29.3659 30.4172 29.3148L34.6436 28.409C34.8211 28.3693 35.0071 28.4138 35.1474 28.5294C35.2887 28.6438 35.3709 28.8159 35.3709 28.9977V29.3931C35.4784 31.1298 36.9734 32.4505 38.7101 32.3429C40.2967 32.2448 41.5617 30.9798 41.6599 29.3931V28.9997C41.6607 28.6672 41.931 28.3983 42.2635 28.3991C42.305 28.3993 42.3465 28.4036 42.3871 28.4123L46.6121 29.3148C46.8483 29.3659 47.0311 29.5532 47.0765 29.7905L49.1686 40.797C49.1798 40.855 49.1823 40.9142 49.1759 40.9729L48.2272 49.9381C48.1979 50.2178 47.9792 50.4399 47.7 50.4734L42.3309 51.1056C42.3083 51.1073 42.2858 51.1078 42.2633 51.107ZM29.9529 49.3333L34.281 49.8425L35.6967 41.7403C35.7039 41.6969 35.7162 41.6544 35.7335 41.6139C36.3356 40.1647 38.1835 40.1928 38.5147 40.2089C38.8492 40.1928 40.6944 40.1654 41.2952 41.6139C41.3123 41.6545 41.3248 41.697 41.3327 41.7403L42.7544 49.8398L47.0825 49.3307L47.971 40.9375L45.9705 30.4067L42.8461 29.7377C42.5423 32.1302 40.3564 33.8234 37.9639 33.5196C35.9884 33.2687 34.4329 31.7132 34.182 29.7377L31.0589 30.4067L29.0638 40.9375L29.9529 49.3333Z" fill="#D7D7D7"/>
<path d="M60.1697 55.2865H42.7003C41.7606 55.2858 40.8377 55.0379 40.0241 54.5679L38.2177 53.5208C38.0324 53.4133 37.9183 53.2153 37.918 53.001V40.809C37.917 40.4949 38.1575 40.2326 38.4706 40.2069C38.5562 40.2002 40.6537 40.0496 41.3 41.6119C41.3172 41.6523 41.3296 41.6948 41.3368 41.7383L42.7545 49.8357L50.8319 48.8864C50.9585 48.8718 51.0704 48.7971 51.1323 48.6857C51.1977 48.5724 51.2054 48.4348 51.153 48.315L48.0279 41.1462C48.0103 41.1049 47.9973 41.0619 47.9891 41.0177L45.897 30.0113C45.8365 29.6843 46.0525 29.3702 46.3795 29.3096C46.4563 29.2954 46.5351 29.2963 46.6115 29.3121L50.8861 30.2361C52.004 30.4731 52.9516 31.2101 53.4565 32.2352L62.6606 50.9062C62.9055 51.4 62.9831 51.9601 62.882 52.5019C62.8066 52.9224 62.6877 53.3338 62.5268 53.7296C62.1267 54.6763 61.1974 55.2901 60.1697 55.2865ZM39.1182 52.6544L40.6263 53.5275C41.2567 53.8922 41.972 54.0843 42.7003 54.0848H60.1697C60.714 54.0875 61.2064 53.763 61.4188 53.2619C61.5471 52.9433 61.6416 52.6121 61.7012 52.2738C61.7532 51.9877 61.7107 51.6925 61.5801 51.4328L52.3814 32.7664C52.0345 32.0738 51.3927 31.5752 50.6358 31.4103L47.2471 30.679L49.1573 40.7274L52.2563 47.8413C52.6112 48.6572 52.2374 49.6064 51.4215 49.9612C51.2785 50.0234 51.1273 50.0646 50.9724 50.0833L42.3297 51.0989C42.0124 51.1385 41.72 50.9211 41.6666 50.6058L40.1619 42.0213C39.9248 41.6731 39.5372 41.4568 39.1162 41.4379L39.1182 52.6544Z" fill="#D7D7D7"/>
<path d="M34.3393 55.2865H16.8558C15.8917 55.2995 15.0062 54.7562 14.581 53.8908C14.3798 53.4473 14.234 52.9804 14.1468 52.5012C14.0475 51.9571 14.1283 51.3955 14.377 50.9015L23.5743 32.2352C24.0815 31.2139 25.0252 30.4785 26.1395 30.2361L30.414 29.3121C30.611 29.2698 30.8162 29.3289 30.9606 29.4694C31.1044 29.6102 31.1685 29.8134 31.1312 30.0113L29.0485 41.0177C29.0399 41.0619 29.0267 41.1049 29.009 41.1462L25.8772 48.3224C25.8252 48.4408 25.8334 48.5771 25.8993 48.6883C25.963 48.8004 26.0767 48.8752 26.205 48.8891L34.2764 49.8358L35.6974 41.7403C35.7053 41.697 35.7178 41.6545 35.7349 41.6139C36.3805 40.0537 38.478 40.2042 38.5636 40.2089C38.8769 40.2343 39.1179 40.4966 39.1169 40.811V53.001C39.1166 53.2153 39.0025 53.4133 38.8172 53.5209L37.0168 54.5666C36.2031 55.0377 35.2794 55.2861 34.3393 55.2865ZM29.7837 30.6783L26.395 31.4143C25.6393 31.5779 24.9992 32.0765 24.6555 32.7691L15.4555 51.4368C15.3228 51.6979 15.2792 51.9949 15.331 52.2831C15.3993 52.6611 15.5133 53.0294 15.6709 53.3797C15.897 53.8234 16.358 54.0977 16.8558 54.0849H34.3393C35.0677 54.0844 35.7831 53.8917 36.4133 53.5262L37.9146 52.6564V41.4379C37.4936 41.4568 37.1061 41.6731 36.8689 42.0213L35.3622 50.6058C35.3089 50.9209 35.017 51.138 34.6999 51.0989L26.0652 50.0833C25.1819 49.9801 24.5495 49.1803 24.6527 48.2968C24.6709 48.1404 24.712 47.9877 24.7746 47.8433L27.879 40.7274L29.7837 30.6783Z" fill="#D7D7D7"/>
<path d="M47.1804 59.0626H29.8521C29.5196 59.0626 29.25 58.7929 29.25 58.4604V54.6857C29.25 54.3532 29.5196 54.0835 29.8521 54.0835H34.328C35.0647 54.0829 35.7881 53.888 36.4255 53.5189L38.2152 52.4798C38.4014 52.3715 38.6313 52.3715 38.8173 52.4798L40.6171 53.5209C41.2537 53.8894 41.9762 54.0834 42.7118 54.0835H47.1804C47.5129 54.0835 47.7825 54.3532 47.7825 54.6857V58.4618C47.7817 58.7938 47.5124 59.0626 47.1804 59.0626ZM30.4543 57.8583H46.5796V55.2865H42.7105C41.7635 55.2863 40.8333 55.0366 40.0136 54.5626L38.5163 53.6962L37.0276 54.5599C36.2069 55.0356 35.2752 55.2862 34.3267 55.2865H30.4516L30.4543 57.8583Z" fill="#D7D7D7"/>
<path d="M54.1178 76.9989C52.1448 76.9964 50.1807 76.7348 48.2758 76.2208L39.3286 73.6444L38.3712 73.4062C38.0491 73.3239 37.8545 72.9959 37.9368 72.6737C37.9914 72.4605 38.158 72.2939 38.3712 72.2394L47.7659 69.8977C47.8317 69.8821 47.8994 69.8771 47.9667 69.883C50.0658 70.0645 52.1736 70.1267 54.2798 70.069L58.4947 70.0442C60.1774 70.1215 61.5285 71.4594 61.6225 73.1412C61.6245 73.1715 61.6245 73.2019 61.6225 73.2322C61.3629 75.6716 58.7015 76.4015 58.5877 76.4316C57.1301 76.821 55.6265 77.0118 54.1178 76.9989ZM40.9042 72.8509L48.6123 75.0708C48.6678 75.0868 53.7084 76.5427 58.2706 75.2755C58.2954 75.2695 60.2108 74.7315 60.4176 73.1606C60.3418 72.1142 59.4928 71.2913 58.4446 71.2485L54.3059 71.2753C52.1882 71.3353 50.0688 71.2744 47.958 71.0933L40.9042 72.8509Z" fill="#D7D7D7"/>
<path d="M25.4473 70.1674H25.4413C19.532 70.2164 14.0665 67.0384 11.186 61.8786C11.1753 61.8569 11.1659 61.8346 11.1579 61.8117C10.204 59.4404 11.3531 56.745 13.7241 55.7911C13.7248 55.7908 13.7257 55.7906 13.7263 55.7903C16.8782 54.2849 20.8363 55.4611 23.5947 56.7169C25.2819 57.4793 27.1137 57.8683 28.9652 57.8576H48.0657C49.917 57.869 51.7486 57.481 53.4361 56.7196C56.1939 55.4651 60.1513 54.2876 63.338 55.809C65.1399 56.5665 66.2736 58.3723 66.1727 60.3244C66.0975 61.2134 65.7999 62.0693 65.3077 62.8133C62.3005 67.4578 57.1196 70.2335 51.5869 70.164C51.2544 70.1657 50.9834 69.8974 50.9817 69.5649C50.9806 69.3475 51.0968 69.1463 51.2858 69.0387L55.8086 66.4963C55.2278 62.4961 53.3271 61.8518 52.7838 61.7461C52.2064 62.0566 51.4571 62.3844 50.7312 62.7029C49.9124 63.0299 49.1196 63.4181 48.3594 63.8643C47.9714 64.1319 41.7325 66.9573 38.7125 68.2874C38.5581 68.3546 38.3825 68.3546 38.2281 68.2874C35.6355 67.15 32.1491 65.4453 30.2598 63.7927C30.0711 63.6536 28.8173 63.0521 27.8104 62.569C26.8276 62.0967 25.8153 61.6116 25.163 61.2631C24.4598 61.6264 22.4199 62.9819 22.3102 66.5485L25.7972 69.0782C26.0655 69.2747 26.1236 69.6516 25.927 69.9198C25.8141 70.0739 25.6348 70.1652 25.444 70.166L25.4473 70.1674ZM12.2899 61.3976C14.572 65.5289 18.7157 68.2972 23.4061 68.8239L21.3574 67.338C21.2017 67.2249 21.1094 67.0441 21.1092 66.8516C21.1092 61.5126 24.8298 60.0882 24.9897 60.0307C25.1553 59.97 25.3391 59.9849 25.4928 60.0715C26.0722 60.4 27.2236 60.9533 28.3376 61.4872C29.2791 61.8858 30.189 62.3555 31.0593 62.8922C32.7767 64.3955 35.9921 65.9825 38.477 67.0844C41.9781 65.5383 47.3083 63.1036 47.6977 62.8695C48.515 62.3797 49.3705 61.9574 50.2562 61.6063C51.0276 61.2671 51.8304 60.9165 52.3697 60.6074C52.4653 60.5569 52.5719 60.5303 52.6801 60.5298C52.83 60.5298 56.3485 60.685 57.057 66.7519C57.0851 66.9926 56.9662 67.2268 56.7553 67.346L54.3059 68.7229C58.4101 68.0418 62.0369 65.6612 64.2941 62.1663C64.6783 61.5919 64.9119 60.9302 64.9738 60.2421C65.0333 58.7968 64.1888 57.4666 62.8556 56.9056C59.9018 55.5006 55.9986 56.8695 53.9319 57.8101C52.0883 58.6439 50.0864 59.0699 48.063 59.0592H28.9652C26.942 59.0699 24.9403 58.6439 23.097 57.8101C21.0289 56.8695 17.1251 55.4979 14.2067 56.8902C12.4392 57.6121 11.5837 59.6237 12.2899 61.3976Z" fill="#D7D7D7"/>
<path d="M29.1092 71.0853C29.06 71.0853 29.011 71.0793 28.9633 71.0672L25.3023 70.1486C25.2279 70.1302 25.1578 70.0978 25.0956 70.053L21.3556 67.34C21.1999 67.2269 21.1076 67.0461 21.1074 66.8536C21.1074 61.5146 24.828 60.0902 24.9879 60.0327C25.1535 59.972 25.3373 59.9868 25.491 60.0735C26.0791 60.408 27.1997 60.9432 28.2823 61.4671C29.7455 62.1703 30.658 62.6139 30.9999 62.8487C33.4515 64.5017 36.0326 65.9541 38.718 67.1915C39.0219 67.3264 39.1589 67.6822 39.0239 67.9861C38.9634 68.1224 38.8543 68.2315 38.718 68.292C37.3425 68.8982 36.6058 69.2166 36.2533 69.3578C35.9783 69.4689 35.7073 69.5933 35.435 69.7171C33.4309 70.4929 31.3185 70.9532 29.1734 71.0819C29.1507 71.084 29.1279 71.0853 29.1092 71.0853ZM25.7071 69.0113L29.1627 69.8777C31.1406 69.7547 33.0882 69.3312 34.9386 68.6219C35.2223 68.4921 35.5099 68.3609 35.8037 68.2425C36.0465 68.1448 36.5021 67.9495 37.0153 67.726C34.7009 66.5788 32.4641 65.2808 30.3195 63.8409C30.0278 63.6402 28.8235 63.0614 27.7604 62.5503C26.8037 62.0907 25.8202 61.6136 25.1672 61.2677C24.4633 61.631 22.4241 62.9872 22.3144 66.5532L25.7071 69.0113Z" fill="#D7D7D7"/>
<path d="M24.0563 76.999C22.6543 76.9981 21.2589 76.8071 19.9082 76.431C19.8025 76.4029 17.1418 75.6736 16.8748 73.2356C16.8725 73.204 16.8725 73.1722 16.8748 73.1406C16.966 71.4775 18.2898 70.1471 19.9524 70.0476L22.7417 70.0704C24.8501 70.1269 26.96 70.0648 29.0614 69.8844C29.0795 69.8844 29.1036 69.8844 29.1217 69.8844C31.1147 69.7626 33.0776 69.3374 34.9423 68.6232C35.226 68.4934 35.5137 68.3623 35.8074 68.2439C36.2376 68.0719 37.3308 67.5922 38.2354 67.1928C41.7271 65.654 47.2996 63.1116 47.6983 62.8714C48.5156 62.3817 49.3711 61.9594 50.2568 61.6083C51.0282 61.2671 51.831 60.9165 52.3703 60.6074C52.466 60.5569 52.5725 60.5303 52.6807 60.5298C52.8306 60.5298 56.3491 60.685 57.0576 66.7519C57.0857 66.9926 56.9668 67.2268 56.7559 67.346L51.8792 70.0891C51.8322 70.1149 51.782 70.1344 51.73 70.1473L37.6801 73.6504L28.7818 76.2149C27.2654 76.7534 25.6654 77.0189 24.0563 76.999ZM18.0737 73.1573C18.2865 74.7283 20.202 75.2662 20.2214 75.2715C22.8895 76.0344 25.7263 75.9708 28.3576 75.0895C28.3779 75.0808 28.3986 75.0735 28.4198 75.0675L37.371 72.4896L51.3627 69.0026L55.8152 66.4983C55.2345 62.4981 53.3337 61.8538 52.7904 61.7481C52.2131 62.0586 51.4637 62.3864 50.7378 62.7048C49.9191 63.0318 49.1263 63.4201 48.3661 63.8663C47.978 64.1339 41.7392 66.9593 38.7191 68.2894C37.3435 68.8955 36.6069 69.214 36.2543 69.3552C35.9794 69.4662 35.7084 69.5907 35.4361 69.7144C33.432 70.4902 31.3196 70.9505 29.1745 71.0793C29.1558 71.0793 29.1304 71.0793 29.1116 71.0793C26.9831 71.2661 24.8455 71.3288 22.7095 71.2673L19.9972 71.2432C18.9646 71.3049 18.1398 72.1263 18.0737 73.1587V73.1573Z" fill="#D7D7D7"/>
<path d="M38.5173 33.5533C36.225 33.6625 34.278 31.8927 34.1688 29.6002C34.1626 29.4708 34.1625 29.3411 34.1685 29.2119V25.1681C34.1698 24.8356 34.4404 24.567 34.773 24.5683C34.9111 24.5689 35.0451 24.617 35.152 24.7045C35.8958 25.3376 36.7652 25.8059 37.703 26.0787C38.1863 26.2172 38.6986 26.2172 39.1816 26.0787C40.177 25.7875 41.0946 25.2774 41.8672 24.5854C42.1192 24.3685 42.4994 24.3971 42.7164 24.6491C42.8097 24.7577 42.8614 24.8958 42.862 25.039V29.2098C42.9141 30.3524 42.4966 31.4664 41.7066 32.2935C40.8566 33.1259 39.7067 33.5802 38.5173 33.5533ZM35.3728 26.343V29.2119C35.2818 30.8547 36.5399 32.2604 38.1827 32.3513C38.2941 32.3575 38.4059 32.3574 38.5173 32.351C39.3847 32.3781 40.2262 32.0541 40.8516 31.4525C41.4149 30.851 41.7076 30.0453 41.6618 29.2226V26.25C41.0004 26.6882 40.275 27.0211 39.5115 27.2368C38.8142 27.4399 38.0732 27.4399 37.3759 27.2368C36.6687 27.0365 35.9941 26.7354 35.3728 26.343Z" fill="#D7D7D7"/>
</g>
<defs>
<clipPath id="clip0_2418_176">
<rect width="77" height="77" fill="white"/>
</clipPath>
</defs>
</svg>
