<svg width="66" height="66" viewBox="0 0 66 66" fill="none" xmlns="http://www.w3.org/2000/svg">
<path d="M62.0559 12.7379C62.054 12.7379 62.0514 12.7379 62.0493 12.7379C61.6833 12.7379 61.385 13.0326 61.3811 13.3993C61.3772 13.7684 61.6735 14.0705 62.0429 14.0744C62.9788 14.0838 63.7403 14.8513 63.7403 15.7853V49.727C63.7403 50.6704 62.9728 51.4379 62.0299 51.4379H36.9222C36.5527 51.4379 36.2539 51.7371 36.2539 52.1061C36.2539 53.9009 34.7941 55.3608 32.9993 55.3608C31.2045 55.3608 29.7447 53.9009 29.7447 52.1061C29.7447 51.7371 29.4457 51.4379 29.0764 51.4379H3.96883C3.02575 51.4379 2.25838 50.6704 2.25838 49.727V15.7853C2.25838 14.8513 3.01995 14.0838 3.95581 14.0744C4.32526 14.0705 4.62148 13.7684 4.61762 13.3993C4.61375 13.0326 4.31546 12.7379 3.94937 12.7379C3.94743 12.7379 3.94486 12.7379 3.94279 12.7379C2.27668 12.7549 0.921875 14.1221 0.921875 15.7853V49.727C0.921875 51.4076 2.28905 52.7745 3.96896 52.7745H28.4565C28.7815 54.9905 30.695 56.6974 32.9994 56.6974C35.3039 56.6974 37.2174 54.9904 37.5423 52.7745H62.0299C63.7098 52.7745 65.077 51.4076 65.077 49.727V15.7853C65.0768 14.1221 63.722 12.7548 62.0559 12.7379Z" fill="#D7D7D7"/>
<path d="M8.33484 48.4601H28.6873C30.6961 48.4601 32.3309 50.0946 32.3309 52.104C32.3309 52.4731 32.6298 52.7723 32.9991 52.7723C33.3684 52.7723 33.6674 52.4731 33.6674 52.104C33.6674 50.0946 35.3022 48.4601 37.3109 48.4601H57.6635C59.3441 48.4601 60.7113 47.0932 60.7113 45.4127V12.35C60.7113 10.6694 59.3441 9.30261 57.6635 9.30261H37.3112C35.4687 9.30261 33.8607 10.3108 32.9992 11.8018C32.1379 10.3107 30.5298 9.30261 28.6873 9.30261H8.33484C6.65429 9.30261 5.28711 10.6695 5.28711 12.35V45.4126C5.28711 47.0932 6.65429 48.4601 8.33484 48.4601ZM37.3112 10.6391H57.6638C58.6075 10.6391 59.375 11.4066 59.375 12.35V45.4126C59.375 46.3559 58.6075 47.1235 57.6638 47.1235H37.3112C35.8741 47.1235 34.5773 47.7352 33.6676 48.712V14.283C33.6675 12.2736 35.3023 10.6391 37.3112 10.6391ZM6.62361 12.35C6.62361 11.4066 7.39112 10.6391 8.33484 10.6391H28.6873C30.6961 10.6391 32.3309 12.2736 32.3309 14.283V48.712C31.4212 47.7354 30.1244 47.1235 28.6873 47.1235H8.33484C7.39112 47.1235 6.62361 46.3559 6.62361 45.4126V12.35Z" fill="#D7D7D7"/>
<path d="M10.9495 16.1077H28.0044C28.3739 16.1077 28.6727 15.8085 28.6727 15.4395C28.6727 15.0704 28.3738 14.7712 28.0044 14.7712H10.9495C10.5801 14.7712 10.2812 15.0704 10.2812 15.4395C10.2812 15.8085 10.5802 16.1077 10.9495 16.1077Z" fill="#D7D7D7"/>
<path d="M10.9495 21.4847H28.0044C28.3739 21.4847 28.6727 21.1855 28.6727 20.8164C28.6727 20.4474 28.3738 20.1482 28.0044 20.1482H10.9495C10.5801 20.1482 10.2812 20.4474 10.2812 20.8164C10.2812 21.1855 10.5802 21.4847 10.9495 21.4847Z" fill="#D7D7D7"/>
<path d="M37.9944 21.4847H55.0494C55.4188 21.4847 55.7176 21.1855 55.7176 20.8164V15.4395C55.7176 15.0704 55.4187 14.7712 55.0494 14.7712H37.9944C37.625 14.7712 37.3262 15.0704 37.3262 15.4395V20.8164C37.3262 21.1855 37.6251 21.4847 37.9944 21.4847ZM38.6627 16.1077H54.381V20.148H38.6627V16.1077Z" fill="#D7D7D7"/>
<path d="M10.9495 26.8613H28.0044C28.3739 26.8613 28.6727 26.5621 28.6727 26.193C28.6727 25.824 28.3738 25.5248 28.0044 25.5248H10.9495C10.5801 25.5248 10.2812 25.824 10.2812 26.193C10.2812 26.562 10.5802 26.8613 10.9495 26.8613Z" fill="#D7D7D7"/>
<path d="M10.9495 32.2382H28.0044C28.3739 32.2382 28.6727 31.939 28.6727 31.57C28.6727 31.2009 28.3738 30.9017 28.0044 30.9017H10.9495C10.5801 30.9017 10.2812 31.2009 10.2812 31.57C10.2812 31.9389 10.5802 32.2382 10.9495 32.2382Z" fill="#D7D7D7"/>
<path d="M10.9495 37.6148H28.0044C28.3739 37.6148 28.6727 37.3156 28.6727 36.9466C28.6727 36.5775 28.3738 36.2783 28.0044 36.2783H10.9495C10.5801 36.2783 10.2812 36.5775 10.2812 36.9466C10.2812 37.3156 10.5802 37.6148 10.9495 37.6148Z" fill="#D7D7D7"/>
<path d="M10.9495 42.9918H28.0044C28.3739 42.9918 28.6727 42.6926 28.6727 42.3235C28.6727 41.9545 28.3738 41.6553 28.0044 41.6553H10.9495C10.5801 41.6553 10.2812 41.9545 10.2812 42.3235C10.2812 42.6926 10.5802 42.9918 10.9495 42.9918Z" fill="#D7D7D7"/>
<path d="M40.2321 42.5737C42.7963 44.804 46.2194 44.2047 47.4931 41.5703C48.0844 40.3459 48.0374 38.8498 47.3711 37.6653C47.237 37.4272 47.0737 37.2089 46.8962 37.0031C48.0599 36.9517 48.9854 36.5784 49.5671 35.9143C50.1865 35.214 50.3257 34.3336 50.706 33.7508C51.0825 33.1762 51.8017 32.8068 52.4687 32.8418C53.5187 32.8895 54.3707 33.6168 54.4774 35.3628C54.5544 36.7574 54.2901 38.1704 53.7118 39.4469C52.7176 41.63 51.1518 41.7513 50.1804 40.9959C49.8881 40.7691 49.4698 40.8233 49.2427 41.114C49.0162 41.4054 49.069 41.8253 49.3607 42.0517C50.9855 43.3127 53.5475 43.0337 54.9288 39.9996C55.5958 38.5263 55.9005 36.897 55.8112 35.2851C55.6555 32.743 54.1682 31.5809 52.5291 31.5064C51.3772 31.4546 50.2234 32.0478 49.5864 33.0198C49.2117 33.5959 48.9276 34.619 48.5638 35.0311C48.0651 35.6001 47.1639 35.6857 46.4313 35.6729C48.6595 33.3483 46.9315 29.643 43.4492 29.8631C42.2641 29.9333 41.0358 30.4792 39.8977 31.4421C39.6158 31.6806 39.5806 32.1022 39.8187 32.3842C40.0569 32.6658 40.4784 32.701 40.7605 32.4628C41.3993 31.9224 42.3985 31.2642 43.5289 31.1971C45.759 31.07 46.8464 33.2271 45.5148 34.7029C44.9457 35.3343 43.987 35.6439 43.0767 35.4939C42.7138 35.4336 42.3686 35.6808 42.3092 36.0447C42.2491 36.4089 42.4952 36.7528 42.86 36.8129C43.5717 36.9298 45.2695 36.6564 46.206 38.3207C46.6543 39.1176 46.687 40.1649 46.2895 40.9889C45.4286 42.77 43.067 43.2673 41.1091 41.5651C40.3403 40.8956 39.6993 39.957 39.0918 38.612C38.7779 37.9157 38.4698 37.1012 38.5691 36.338C38.6161 35.9719 38.3577 35.6367 37.9915 35.5894C37.6267 35.5404 37.2906 35.8012 37.2429 36.1663C37.1019 37.2607 37.4824 38.2948 37.874 39.1614C38.5634 40.6889 39.3126 41.7733 40.2321 42.5737Z" fill="#D7D7D7"/>
<path d="M46.9584 27.0894C46.8173 26.7474 46.4259 26.5865 46.0852 26.7265C45.7445 26.8671 45.582 27.2581 45.7223 27.5991C46.6928 29.9483 49.3018 31.2253 51.7786 30.4921C52.1323 30.3873 52.3339 30.0154 52.2295 29.6617C52.1251 29.308 51.7537 29.1053 51.3987 29.2104C49.6092 29.7412 47.6782 28.8346 46.9584 27.0894Z" fill="#D7D7D7"/>
<path d="M51.6736 26.4318C51.6736 25.4908 50.912 24.7252 49.9761 24.7252C49.0351 24.7252 48.2695 25.4908 48.2695 26.4318C48.2695 27.3726 49.0351 28.1381 49.9761 28.1381C50.912 28.1381 51.6736 27.3726 51.6736 26.4318ZM49.6062 26.4318C49.6062 26.2279 49.7719 26.0617 49.9762 26.0617C50.1721 26.0617 50.3372 26.2311 50.3372 26.4318C50.3372 26.6321 50.1721 26.8015 49.9762 26.8015C49.7719 26.8015 49.6062 26.6357 49.6062 26.4318Z" fill="#D7D7D7"/>
</svg>
