<svg width="90" height="90" viewBox="0 0 90 90" fill="none" xmlns="http://www.w3.org/2000/svg">
<path fill-rule="evenodd" clip-rule="evenodd" d="M54.4928 66.2711C53.3487 66.2711 52.182 66.2056 51.0247 66.0757C50.5435 66.0214 50.1952 65.5867 50.2502 65.1042C50.3033 64.6219 50.7391 64.274 51.2206 64.3287C52.3121 64.4511 53.4143 64.5135 54.4928 64.5135C70.4853 64.5133 83.4986 51.5014 83.4986 35.5075C83.4988 19.5133 70.4852 6.50136 54.4928 6.50136C42.3659 6.50126 31.4159 14.149 27.2466 25.5315C27.0803 25.9873 26.5745 26.2218 26.1186 26.0547C25.6631 25.8876 25.4302 25.3828 25.5968 24.9269C27.7428 19.0675 31.5771 14.0508 36.6839 10.4189C41.9061 6.70602 48.0639 4.74353 54.4928 4.74353C71.456 4.74353 85.2563 18.5442 85.2563 35.5075C85.2563 52.4705 71.4557 66.2711 54.4928 66.2711Z" fill="#D7D7D7"/>
<path fill-rule="evenodd" clip-rule="evenodd" d="M20.7777 39.5213V45.2115C20.7777 49.814 24.5219 53.5583 29.1252 53.5583L30.843 53.5582C35.4461 53.5582 39.1905 49.8141 39.1905 45.2116L39.1906 39.3217C36.598 38.5878 34.5396 37.072 33.2506 34.9599C30.129 38.0456 25.0254 39.4496 20.7777 39.5213ZM30.843 55.3161H29.1253C23.5537 55.3161 19.0195 50.7833 19.0195 45.2116L19.0197 38.6374C19.0197 38.4001 19.1166 38.1726 19.2869 38.0073C19.4572 37.8417 19.6861 37.7508 19.9241 37.7592C24.165 37.8816 29.9876 36.4086 32.7525 32.8855C32.9449 32.642 33.2488 32.5172 33.5563 32.5564C33.864 32.5958 34.1276 32.7937 34.2503 33.0775C35.3105 35.5149 37.3888 37.1411 40.2598 37.7797C40.661 37.8693 40.9484 38.2258 40.9484 38.6375L40.9486 45.2115C40.9486 50.7832 36.4146 55.3163 30.843 55.3161Z" fill="#D7D7D7"/>
<path fill-rule="evenodd" clip-rule="evenodd" d="M19.9704 47.2412H17.7675C16.0004 47.2412 14.7168 45.6298 14.7168 43.41C14.7171 42.4676 14.9603 41.576 15.4034 40.8993C15.9601 40.0478 16.8005 39.5791 17.7674 39.5791L19.8987 39.579C20.384 39.579 20.7776 39.9726 20.7776 40.458C20.7779 40.9433 20.3839 41.3369 19.8987 41.3369L17.7675 41.3368C17.3975 41.3368 17.1045 41.5087 16.8738 41.8617C16.6193 42.2499 16.4746 42.8144 16.4746 43.41C16.4746 44.1269 16.7438 45.4834 17.7674 45.4834L19.9704 45.4832C20.4557 45.4832 20.849 45.8768 20.849 46.3623C20.8492 46.8475 20.4554 47.2412 19.9704 47.2412Z" fill="#D7D7D7"/>
<path fill-rule="evenodd" clip-rule="evenodd" d="M42.1989 47.2412H39.9964C39.5111 47.2412 39.1172 46.8477 39.1172 46.3623C39.1172 45.8766 39.5109 45.4834 39.9961 45.4834L42.1989 45.4832C43.2227 45.4832 43.4935 44.1271 43.4935 43.41C43.4938 42.8144 43.347 42.2501 43.0943 41.8617C42.8618 41.5086 42.5706 41.3369 42.1989 41.3369L40.0698 41.3368C39.5845 41.3368 39.1905 40.9434 39.1905 40.458C39.1906 39.9725 39.5842 39.5791 40.0694 39.5791L42.1989 39.579C43.968 39.579 45.2513 41.1902 45.2513 43.41C45.2514 44.3523 45.0078 45.244 44.5646 45.9208C44.0084 46.7721 43.1675 47.2412 42.1989 47.2412Z" fill="#D7D7D7"/>
<path fill-rule="evenodd" clip-rule="evenodd" d="M43.2196 41.6345C42.7347 41.6345 42.3407 41.241 42.3407 40.7556L42.3408 34.5305C42.3408 31.1722 40.31 29.156 38.6054 28.0557C36.346 26.5956 33.2824 25.792 29.9828 25.792C24.0304 25.7919 17.6251 28.5265 17.6251 34.5305L17.6253 40.7555C17.6253 41.241 17.2313 41.6345 16.7461 41.6345C16.2612 41.6345 15.8672 41.241 15.8672 40.7556L15.8673 34.5305C15.8673 31.2461 17.4365 28.4968 20.4065 26.579C22.9465 24.9378 26.3482 24.0342 29.9828 24.0342C33.6178 24.0341 37.0178 24.938 39.5593 26.579C42.5296 28.4966 44.0985 31.2463 44.0985 34.5305L44.0988 40.7555C44.0988 41.241 43.7048 41.6345 43.2196 41.6345Z" fill="#D7D7D7"/>
<path fill-rule="evenodd" clip-rule="evenodd" d="M52.6412 85.2566H7.32616C5.9015 85.2566 4.74414 84.0976 4.74414 82.6731L4.74424 74.3799C4.74424 67.0129 9.98468 60.5759 17.2063 59.0744C17.6806 58.9754 18.1457 59.2808 18.2445 59.7559C18.3436 60.2311 18.0395 60.6966 17.5634 60.7954C11.1531 62.1282 6.50197 67.8415 6.50197 74.38L6.50218 82.673C6.50218 83.1289 6.87184 83.4989 7.32595 83.4989L52.6412 83.4988C53.0952 83.4988 53.465 83.129 53.465 82.6731L53.4651 74.3799C53.4651 67.8414 48.8123 62.1283 42.4036 60.7954C41.9278 60.6965 41.6217 60.2313 41.7206 59.7559C41.8194 59.2807 42.2864 58.9757 42.7606 59.0744C49.9826 60.5758 55.2228 67.013 55.2228 74.38L55.2231 82.673C55.2231 84.0976 54.0656 85.2567 52.6412 85.2566Z" fill="#D7D7D7"/>
<path fill-rule="evenodd" clip-rule="evenodd" d="M26.881 85.2565C26.3956 85.2565 26.002 84.863 26.002 84.3778L26.0022 77.7678C26.0022 77.2823 26.3956 76.889 26.8809 76.889C27.3663 76.8888 27.7598 77.2825 27.7598 77.7679L27.7602 84.3778C27.7602 84.8629 27.3661 85.2567 26.881 85.2565ZM33.0884 85.2565C32.6014 85.2565 32.2093 84.863 32.2093 84.3778V77.7676C32.2093 77.2821 32.6011 76.8888 33.0881 76.8888C33.5738 76.8886 33.9671 77.2823 33.9671 77.7677L33.9672 84.3778C33.9672 84.8629 33.5735 85.2567 33.0884 85.2565Z" fill="#D7D7D7"/>
<path fill-rule="evenodd" clip-rule="evenodd" d="M25.1086 71.9915C25.1012 71.9915 25.0938 71.9996 25.0938 72.0062V76.874C25.0938 76.8808 25.1011 76.8887 25.1084 76.8887L34.8608 76.8885C34.8682 76.8885 34.8752 76.8808 34.8752 76.8741L34.8756 72.0061C34.8756 71.9995 34.8679 71.9915 34.8605 71.9915L25.1086 71.9915ZM34.8608 78.6465H25.1086C24.131 78.6465 23.3359 77.8515 23.3359 76.8741L23.3362 72.0061C23.3362 71.0286 24.1306 70.2337 25.1084 70.2337L34.8608 70.2335C35.8384 70.2335 36.6331 71.0287 36.6331 72.0062L36.6331 76.874C36.6331 77.8514 35.8384 78.6465 34.8608 78.6465Z" fill="#D7D7D7"/>
<path fill-rule="evenodd" clip-rule="evenodd" d="M34.97 71.9981C34.8455 71.9981 34.7188 71.9716 34.5979 71.9154C34.1588 71.7099 33.9681 71.1872 34.1731 70.7473C35.0429 68.8812 34.5613 66.6388 32.9976 65.2941C31.2509 63.7907 28.7148 63.7908 26.9697 65.2941C25.406 66.6388 24.9226 68.8813 25.7942 70.7473C25.9993 71.1871 25.8089 71.7101 25.3694 71.9154C24.9302 72.1209 24.4063 71.9305 24.2012 71.4905C22.9984 68.914 23.6647 65.8181 25.8217 63.9618C28.2336 61.8863 31.7342 61.8866 34.1438 63.9618C36.3011 65.8179 36.9691 68.9141 35.7662 71.4905C35.6164 71.8103 35.2993 71.9981 34.97 71.9981Z" fill="#D7D7D7"/>
<path fill-rule="evenodd" clip-rule="evenodd" d="M26.9402 65.0944C26.7169 65.0944 26.4949 65.0104 26.3228 64.8422L22.564 61.1451C21.7693 60.3646 21.5621 59.2095 22.0381 58.2024C22.8256 56.5317 23.1386 54.7815 22.9976 52.8515C22.9612 52.3672 23.3254 51.946 23.8088 51.9101C24.2923 51.8745 24.7133 52.2379 24.7499 52.7221C24.9148 54.9622 24.5485 57.0003 23.6275 58.9522C23.472 59.2835 23.5341 59.6348 23.796 59.8919L27.5552 63.5888C27.9013 63.9289 27.9067 64.4856 27.5661 64.8317C27.3942 65.0064 27.1669 65.0945 26.9402 65.0944Z" fill="#D7D7D7"/>
<path fill-rule="evenodd" clip-rule="evenodd" d="M21.5097 70.1166C21.134 70.1166 20.8319 70.0248 20.6085 69.921C19.5355 69.4195 19.1235 68.1452 18.8781 67.3839L16.5494 60.2056C16.4798 59.9934 16.4941 59.7634 16.5893 59.5616C17.8822 56.8001 20.9509 56.0474 23.4173 55.4426C23.8881 55.3266 24.364 55.6155 24.4793 56.0868C24.5951 56.5583 24.3072 57.0342 23.8348 57.1499C21.7367 57.6646 19.3707 58.245 18.3342 60.014L20.5518 66.8445C20.6985 67.301 20.9729 68.1511 21.3518 68.3282C21.471 68.3835 21.6467 68.3657 21.8719 68.2743C21.9122 68.2579 21.9524 68.2447 21.9946 68.2344L24.2836 67.6813C24.7541 67.5674 25.2301 67.8574 25.3436 68.329C25.4574 68.8009 25.1678 69.2759 24.6953 69.39L22.4672 69.9287C22.1099 70.0652 21.7895 70.1167 21.5097 70.1166Z" fill="#D7D7D7"/>
<path fill-rule="evenodd" clip-rule="evenodd" d="M16.1428 85.2566C15.6575 85.2566 15.2637 84.863 15.2637 84.3778L15.264 76.1347C15.264 75.6492 15.6574 75.2559 16.1426 75.2559C16.6281 75.2558 17.0215 75.6493 17.0215 76.1347L17.0216 84.3778C17.0216 84.8629 16.6278 85.2567 16.1428 85.2566Z" fill="#D7D7D7"/>
<path fill-rule="evenodd" clip-rule="evenodd" d="M43.8244 85.2566C43.3391 85.2566 42.9453 84.863 42.9453 84.3778L42.9456 76.1347C42.9456 75.6492 43.339 75.2559 43.8242 75.2559C44.3097 75.2558 44.7031 75.6493 44.7031 76.1347L44.7031 84.3778C44.7031 84.8629 44.3095 85.2567 43.8244 85.2566Z" fill="#D7D7D7"/>
<path fill-rule="evenodd" clip-rule="evenodd" d="M33.0266 65.0944C32.7997 65.0944 32.5724 65.0066 32.4003 64.8317C32.0601 64.4854 32.0652 63.929 32.4113 63.5888L36.1705 59.8918C36.4326 59.6347 36.4946 59.2836 36.339 58.9522C35.4183 57.0001 35.0498 54.9621 35.2165 52.722C35.2514 52.2379 35.6725 51.8748 36.1577 51.9101C36.641 51.946 37.0055 52.3673 36.9688 52.8515C36.826 54.7811 37.1409 56.5317 37.9283 58.2021C38.4027 59.2091 38.1974 60.3645 37.4028 61.1452L33.6438 64.842C33.4716 65.0103 33.2499 65.0945 33.0266 65.0944Z" fill="#D7D7D7"/>
<path fill-rule="evenodd" clip-rule="evenodd" d="M38.4571 70.1166C38.177 70.1166 37.8566 70.0653 37.4995 69.929L35.2713 69.3899C34.7987 69.276 34.5076 68.801 34.6229 68.3291C34.7365 67.8571 35.2125 67.567 35.683 67.6815L37.9702 68.2345C38.0122 68.2446 38.0544 68.2581 38.0946 68.2744C38.32 68.3657 38.4938 68.3841 38.6146 68.328C38.994 68.1508 39.2682 67.3012 39.4148 66.8445L41.6324 60.014C40.5958 58.245 38.2301 57.6649 36.1317 57.15C35.6594 57.0341 35.3718 56.5584 35.4872 56.0869C35.6025 55.6155 36.0786 55.3268 36.5491 55.4427C39.0158 56.0474 42.0844 56.8003 43.3772 59.5617C43.4727 59.7634 43.487 59.9938 43.4174 60.2056L41.0885 67.3837C40.8434 68.1451 40.431 69.4197 39.358 69.9211C39.1349 70.0246 38.8325 70.1168 38.4571 70.1166Z" fill="#D7D7D7"/>
<path fill-rule="evenodd" clip-rule="evenodd" d="M79.1108 53.3325C79.1034 53.3325 79.0978 53.3326 79.0905 53.3324C78.6053 53.3214 78.2207 52.9192 78.2317 52.4339C78.2576 51.2948 77.2539 50.946 74.782 50.3677C71.9896 49.7142 68.1646 48.819 67.8753 44.2399C67.6613 40.8497 68.8128 40.1024 70.3417 39.478C70.9663 39.2227 71.5557 38.9816 72.0702 38.2964C72.9656 37.1026 72.8136 36.1382 72.6067 34.8032C72.3707 33.3 72.0793 31.4294 73.546 29.0872C74.8846 26.9506 81.0406 25.9516 82.8954 25.6964C83.3774 25.6308 83.8201 25.9665 83.886 26.4473C83.9538 26.9282 83.6169 27.3716 83.1353 27.4378C79.6967 27.9109 75.6902 28.9769 75.0365 30.0202C73.9177 31.8063 74.1247 33.1305 74.3426 34.5322C74.5641 35.9531 74.8168 37.5641 73.4765 39.3511C72.671 40.4251 71.7479 40.8023 71.0064 41.1053C69.9886 41.521 69.4774 41.7297 69.6294 44.129C69.8238 47.177 71.953 47.9003 75.183 48.6561C77.4645 49.1897 80.05 49.795 79.9896 52.4735C79.9789 52.9518 79.5867 53.3326 79.1108 53.3325Z" fill="#D7D7D7"/>
<path fill-rule="evenodd" clip-rule="evenodd" d="M50.5511 65.4079C50.4613 65.4079 50.3694 65.394 50.2796 65.3651C49.8185 65.2155 49.5637 64.7202 49.7138 64.2584C50.4814 61.8837 50.3895 57.4064 48.9356 56.8322C46.3759 55.8207 44.922 54.0892 44.9476 52.0813C44.9715 50.0409 46.5461 48.0977 48.8661 47.2458C52.1624 46.035 55.8296 47.2638 58.6769 50.5344C60.2464 52.3367 62.4818 52.3287 65.027 52.1412C67.9753 51.9266 69.9873 55.4657 71.4577 58.0515C71.7763 58.6107 72.0765 59.1391 72.3348 59.5341C72.6002 59.9402 72.4867 60.4849 72.0802 60.7506C71.6741 61.0161 71.1299 60.9026 70.8644 60.4961C70.5753 60.0553 70.262 59.5038 69.9306 58.9201C68.7626 56.8647 66.9991 53.7597 65.1552 53.8942C62.3574 54.1 59.4515 54.0995 57.3512 51.6885C55.0022 48.99 52.0576 47.9459 49.4722 48.8958C47.8575 49.4884 46.7201 50.8073 46.7036 52.1027C46.6891 53.3589 47.7107 54.4582 49.5821 55.1972C52.4404 56.3262 52.2755 62.0483 51.3856 64.7991C51.265 65.171 50.9206 65.4079 50.5511 65.4079Z" fill="#D7D7D7"/>
<path fill-rule="evenodd" clip-rule="evenodd" d="M44.1436 38.0501C43.7283 38.0501 43.3471 38.0132 43.0229 37.9389C42.5509 37.8302 42.2558 37.3586 42.3638 36.8856C42.4722 36.4123 42.9443 36.1172 43.4166 36.2256C44.8102 36.5452 48.0218 35.772 49.0545 34.2874C49.3495 33.8619 49.6513 33.1573 48.8586 31.952C48.3022 31.1061 47.7325 30.6467 47.2307 30.2413C45.909 29.1735 45.1635 28.2936 45.9618 25.0832C46.5262 22.8167 45.7073 20.533 43.9714 19.5298C42.267 18.5454 40.1903 19.0404 38.2732 20.8881C36.3232 22.7656 34.6404 24.3874 32.1135 25.7574C31.6872 25.9892 31.1541 25.8305 30.9233 25.4038C30.691 24.9772 30.8501 24.4436 31.2768 24.2124C33.593 22.9557 35.197 21.411 37.0537 19.6221C39.5404 17.2266 42.4553 16.6233 44.8504 18.0078C47.2619 19.4007 48.4209 22.485 47.6684 25.5073C47.0827 27.8617 47.3992 28.1169 48.3367 28.8739C48.9082 29.336 49.6203 29.9112 50.3271 30.9863C51.318 32.4937 51.3781 34.0224 50.4973 35.2906C49.2321 37.1119 46.2365 38.0502 44.1436 38.0501Z" fill="#D7D7D7"/>
<path fill-rule="evenodd" clip-rule="evenodd" d="M64.8478 27.0568C64.8313 27.0568 64.8145 27.0567 64.7962 27.0563C63.295 27.0218 61.8756 25.4478 60.3284 22.1022C58.8179 19.193 58.0542 19.3172 56.6718 19.5415C55.4874 19.7338 53.8666 19.9974 51.695 18.6225C50.45 17.8322 49.7247 16.6451 49.6002 15.1887C49.3039 11.7142 52.3285 7.6478 55.2582 5.0007C55.6172 4.67536 56.1738 4.70334 56.4997 5.06366C56.8239 5.42356 56.7963 5.9794 56.4356 6.30494C53.1984 9.2303 51.1566 12.7406 51.3507 15.0395C51.4297 15.9528 51.8506 16.639 52.6361 17.1377C54.242 18.1552 55.2857 17.9858 56.3916 17.8063C58.3841 17.4824 59.9457 17.5443 61.8995 21.311C61.9053 21.3228 61.9105 21.335 61.9159 21.3472C63.641 25.0842 64.6516 25.2946 64.8365 25.2991C64.8403 25.2989 64.8419 25.2991 64.8438 25.2991C65.1551 25.2989 65.578 24.8422 65.9754 24.0737C66.869 22.3526 68.8978 22.0072 70.3791 21.7548C70.9303 21.6613 71.7487 21.5216 71.963 21.3522C71.9249 19.9931 71.4338 19.4072 70.7581 18.5987C69.5844 17.1959 68.1232 15.4505 68.8739 9.68929C68.9363 9.20809 69.3775 8.86895 69.8591 8.93139C70.3408 8.99403 70.6794 9.43532 70.6171 9.91652C69.9655 14.9133 71.0529 16.2134 72.1058 17.4705C72.842 18.3491 73.675 19.3448 73.7226 21.3271C73.7611 22.9621 72.049 23.2536 70.6739 23.4878C69.4328 23.6989 68.0262 23.9388 67.5373 24.8827C66.7887 26.3256 65.8839 27.0569 64.8478 27.0568Z" fill="#D7D7D7"/>
</svg>
