<svg width="81" height="81" viewBox="0 0 81 81" fill="none" xmlns="http://www.w3.org/2000/svg">
<path fill-rule="evenodd" clip-rule="evenodd" d="M65.758 24.6515C65.0802 25.8227 63.5749 26.2268 62.4042 25.5498C61.832 25.2209 61.427 24.6918 61.2598 24.0594C61.0837 23.4256 61.1718 22.764 61.4975 22.1956C61.9553 21.4086 62.7826 20.9684 63.6278 20.9684C64.0502 20.9684 64.4729 21.0744 64.8513 21.2971C65.4235 21.6245 65.8285 22.1539 65.9957 22.7878C66.1716 23.4216 66.0837 24.083 65.758 24.6515ZM62.9235 32.5059C63.6806 31.1354 63.3988 29.5167 62.2281 28.4776C61.4446 27.7786 60.7579 27.0805 60.1593 26.3564C60.1506 26.345 60.1417 26.3353 60.1329 26.3243C60.0096 26.1809 59.8953 26.0358 59.7807 25.8897C56.7878 22.0381 57.3512 19.4989 58.1259 15.9843C58.302 15.1711 58.4868 14.3298 58.654 13.3797C58.7245 12.9674 59.0326 12.6372 59.4375 12.5413C59.9656 12.4145 60.4145 12.026 60.6082 11.5274C60.6875 11.3155 60.7754 10.906 60.5114 10.5329C60.3529 10.3041 60.0889 10.158 59.7718 10.123C59.4109 10.0827 59.0325 10.1873 58.7067 10.4183C58.3986 10.6315 58.1873 10.9269 58.0904 11.25C57.2893 13.9051 56.5147 16.7256 55.8545 19.1365C55.564 20.219 55.3439 21.1704 55.1062 22.4198C54.6661 24.6779 53.8298 27.2589 52.483 30.528L52.5181 32.2899C55.3967 33.5103 57.967 35.3712 60.0534 37.703L62.9235 32.5059ZM46.9111 72.7112C50.001 68.5687 52.0608 62.8926 52.6681 56.7247C53.2844 55.7984 53.7948 54.8332 54.1822 53.858H63.6629C63.1787 63.6084 56.0309 71.5396 46.9111 72.7112ZM25.4763 53.858H34.957C35.3443 54.8331 35.8548 55.7984 36.471 56.7247C37.0784 62.8926 39.1382 68.5687 42.228 72.7112C33.1082 71.5396 25.9603 63.6084 25.4763 53.858ZM23.5132 28.4959C22.5536 27.6627 21.8407 26.9985 21.0483 26.1989C19.2877 24.4273 17.2366 22.3448 15.3352 20.3264C14.8687 19.8292 14.8423 19.1119 15.0271 18.6212C15.124 18.3609 15.3793 17.9152 15.9251 17.865C16.3829 17.8248 16.6908 18.1101 16.8318 18.2841C17.1663 18.6982 17.2807 19.2789 17.1312 19.7994C17.0079 20.2007 17.1399 20.6341 17.4569 20.9015C18.2052 21.5187 18.839 22.101 19.4552 22.6621C22.1136 25.0887 24.0239 26.8425 28.8567 26.1795C29.0328 26.1553 29.2087 26.1278 29.3848 26.0986C29.4464 26.0888 29.4994 26.079 29.5609 26.0677C30.45 25.9078 31.3655 25.6723 32.325 25.3518C33.8126 24.8587 35.3531 25.4271 36.1631 26.7672L38.267 30.2632C38.3285 30.7257 38.3813 31.1786 38.4342 31.6201C35.4148 32.5743 32.6859 34.2124 30.3972 36.3602C28.4428 33.7164 26.0131 30.6604 23.5132 28.4959ZM27.4217 19.4877C26.2509 20.1649 25.846 21.6692 26.5238 22.8421C26.8495 23.4102 27.3777 23.8156 28.0114 23.9853C28.6451 24.1556 29.3055 24.0676 29.8776 23.7402C30.4411 23.4128 30.8459 22.8836 31.0133 22.25C31.1894 21.6163 31.1012 20.9546 30.7756 20.3862C30.0976 19.2148 28.5923 18.8111 27.4217 19.4877ZM35.4939 10.0605C36.1365 12.756 36.8671 15.589 37.5098 18.0043C37.7915 19.0923 38.082 20.0256 38.4957 21.2262C39.5521 24.2711 40.1154 27.968 40.4763 31.0895C41.8055 30.8179 43.1701 30.6742 44.5696 30.6742C46.5943 30.6742 48.5574 30.9737 50.4147 31.5311L50.3091 26.0513C50.2827 24.4858 49.2263 23.2235 47.6946 22.9089C46.6646 22.697 45.7227 22.4326 44.8424 22.1079C44.8247 22.1024 44.816 22.098 44.7983 22.0938C44.6222 22.0285 44.455 21.9618 44.279 21.892C39.7632 20.052 38.9796 17.5724 37.897 14.143C37.6417 13.3491 37.3776 12.5272 37.0518 11.6218C36.9021 11.2291 37.0079 10.789 37.3071 10.5019C37.7032 10.1274 37.897 9.5688 37.8088 9.04085C37.7737 8.81939 37.6504 8.41666 37.2367 8.22453C36.9813 8.10757 36.6821 8.11307 36.3917 8.24138C36.0571 8.3875 35.7842 8.66727 35.6082 9.03258C35.4585 9.36549 35.4146 9.73178 35.4939 10.0605ZM46.383 15.3773C47.7299 15.3773 48.8302 16.4791 48.8302 17.8318C48.8302 19.1856 47.7299 20.2872 46.383 20.2872C45.0274 20.2872 43.9269 19.1854 43.9269 17.8318C43.9269 16.4789 45.0274 15.3773 46.383 15.3773ZM49.7367 44.0699C49.3583 43.9991 48.9621 43.9599 48.5572 43.9599C47.096 43.9599 45.6874 44.4644 44.5694 45.3711C43.4515 44.4644 42.043 43.9599 40.5818 43.9599C40.1768 43.9599 39.7894 43.9991 39.4023 44.0699C40.4498 39.8343 42.2368 36.09 44.5696 33.2929C46.9024 36.0901 48.6982 39.8343 49.7367 44.0699ZM34.3582 51.7687C34.2703 51.2783 34.2262 50.7921 34.2262 50.3116C34.2262 48.1151 35.3442 46.1761 37.0431 45.0351C37.9938 40.3718 39.7895 36.1681 42.2104 32.9169C33.0995 34.098 25.9603 42.024 25.4763 51.7687H34.3582ZM44.5696 61.3353C48.5485 59.3715 52.8267 54.3973 52.8267 50.3118C52.8267 47.9618 50.9166 46.0494 48.5574 46.0494C47.3338 46.0494 46.163 46.5788 45.3532 47.5039C45.1594 47.7295 44.869 47.8586 44.5697 47.8586C44.2704 47.8586 43.9799 47.7294 43.7863 47.5039C42.9765 46.5788 41.8057 46.0494 40.5821 46.0494C38.2318 46.0494 36.3215 47.962 36.3215 50.3118C36.3214 54.3973 40.5907 59.3715 44.5696 61.3353ZM39.0326 59.8199C39.9832 64.7382 41.9199 69.1258 44.5696 72.3103C47.228 69.1258 49.1647 64.7381 50.1066 59.8199C48.5221 61.3952 46.7263 62.6795 44.9921 63.4427C44.8601 63.5027 44.7104 63.5318 44.5696 63.5318C44.4288 63.5318 44.2791 63.5027 44.1471 63.4427C42.4216 62.6794 40.6171 61.395 39.0326 59.8199ZM52.0959 45.0351C51.1453 40.3718 49.3496 36.1681 46.9288 32.9169C56.0397 34.098 63.1788 42.024 63.6629 51.7687H54.7809C54.8689 51.2783 54.913 50.7921 54.913 50.3116C54.913 48.1151 53.795 46.1761 52.0959 45.0351ZM68.0204 22.2472C67.7035 21.0744 66.9465 20.0951 65.8988 19.4877C64.8513 18.8806 63.6278 18.7189 62.4481 19.0335C61.286 19.3457 60.309 20.0923 59.7015 21.1341C59.4462 19.7092 59.7543 18.3121 60.1681 16.4347C60.3001 15.8009 60.4585 15.1016 60.5995 14.3399C61.4885 13.9328 62.2104 13.1821 62.5626 12.2656C62.9412 11.2474 62.8179 10.176 62.2193 9.32759C61.7087 8.60345 60.9253 8.1492 60.0098 8.04649C59.1382 7.95026 58.2404 8.18581 57.5011 8.71215C56.8145 9.1928 56.3126 9.88098 56.0837 10.6513C55.2826 13.3269 54.4992 16.1643 53.8391 18.5865C53.5309 19.7247 53.302 20.7206 53.0467 22.0245C52.8706 22.9468 52.6242 23.9356 52.2897 25.015C51.9464 23.3646 50.8549 21.9853 49.3408 21.2722C50.3091 20.4379 50.9253 19.2065 50.9253 17.8318C50.9253 15.3274 48.8832 13.288 46.383 13.288C43.883 13.288 41.8496 15.3161 41.8319 17.8135C40.8988 16.7075 40.4674 15.3452 39.8865 13.512C39.6929 12.8934 39.4727 12.2099 39.2174 11.4785C39.7807 10.6817 40.036 9.67038 39.8776 8.70373C39.7015 7.6295 39.0588 6.76329 38.117 6.32735C37.3071 5.95669 36.4004 5.95539 35.5553 6.32605C34.7542 6.67856 34.1028 7.32737 33.7154 8.15649C33.3634 8.91287 33.2753 9.75948 33.4601 10.5424C34.1028 13.26 34.8421 16.1086 35.4848 18.5365C35.7842 19.6784 36.0834 20.6549 36.5235 21.9087C36.8404 22.8389 37.1134 23.8433 37.351 24.8768C36.2331 23.6218 34.6045 22.9725 32.9407 23.1104C32.9759 23.0048 33.0112 22.8988 33.0376 22.7903C33.3545 21.6174 33.1873 20.3928 32.5798 19.3413C31.9725 18.2909 30.9953 17.5389 29.8245 17.2241C28.6537 16.9106 27.4214 17.0709 26.3737 17.678C24.2083 18.9275 23.46 21.7008 24.7013 23.8695C23.3367 23.3791 22.2805 22.4167 20.8632 21.1199C20.3789 20.6825 19.8508 20.1978 19.2699 19.6936C19.3578 18.7184 19.0674 17.7198 18.4513 16.962C17.7558 16.1178 16.7699 15.6905 15.7401 15.7836C14.5252 15.8936 13.5305 16.6795 13.0727 17.883C12.5623 19.2229 12.8615 20.7452 13.8123 21.7593C15.7313 23.7942 17.7999 25.8893 19.5693 27.671C20.3968 28.5079 21.145 29.2047 22.1485 30.074C24.578 32.1851 26.9987 35.268 28.9265 37.8836C25.4758 41.823 23.3631 47.0658 23.3631 52.8129C23.3631 65.0208 32.879 74.9507 44.5691 74.9507C56.2681 74.9507 65.7752 65.0208 65.7752 52.8129C65.7752 47.8013 64.173 43.1728 61.4706 39.4591L64.754 33.5142C65.7576 31.6922 65.6166 29.5278 64.4723 27.8855C65.731 27.6457 66.8754 26.8838 67.5621 25.6957C68.1699 24.6442 68.3283 23.4201 68.0204 22.2472Z" fill="#D7D7D7"/>
</svg>
