<svg width="77" height="77" viewBox="0 0 77 77" fill="none" xmlns="http://www.w3.org/2000/svg">
<path d="M48.0405 8.84917C45.7144 8.56523 43.4743 10.0293 42.8504 12.3579L41.4767 17.4846C41.1833 18.5796 41.8331 19.7051 42.9281 19.9985C44.0231 20.2919 45.1486 19.6421 45.4421 18.5471L46.1323 15.9708" stroke="#D7D7D7" stroke-width="2.25586" stroke-miterlimit="10" stroke-linecap="round" stroke-linejoin="round"/>
<path d="M54.0342 18.0886L53.3439 20.665C53.0505 21.76 53.7003 22.8855 54.7953 23.1789C55.8903 23.4723 57.0158 22.8225 57.3092 21.7275L58.6829 16.6008C59.3069 14.2722 58.0989 11.8841 55.9425 10.967" stroke="#D7D7D7" stroke-width="2.25586" stroke-miterlimit="10" stroke-linecap="round" stroke-linejoin="round"/>
<path d="M52.9477 11.5401C55.8226 11.5401 58.1531 9.20952 58.1531 6.33462C58.1531 3.45972 55.8226 1.12915 52.9477 1.12915C50.0728 1.12915 47.7422 3.45972 47.7422 6.33462C47.7422 9.20952 50.0728 11.5401 52.9477 11.5401Z" stroke="#D7D7D7" stroke-width="2.25586" stroke-miterlimit="10" stroke-linecap="round" stroke-linejoin="round"/>
<path d="M42.2773 30.3566L45.9275 16.7343" stroke="#D7D7D7" stroke-width="2.25586" stroke-miterlimit="10" stroke-linecap="round" stroke-linejoin="round"/>
<path d="M46.2266 31.4208L47.43 26.9298" stroke="#D7D7D7" stroke-width="2.25586" stroke-miterlimit="10" stroke-linecap="round" stroke-linejoin="round"/>
<path d="M50.8033 30.1464L49.957 33.3043" stroke="#D7D7D7" stroke-width="2.25586" stroke-miterlimit="10" stroke-linecap="round" stroke-linejoin="round"/>
<path d="M53.8285 18.8522L51.9727 25.7778" stroke="#D7D7D7" stroke-width="2.25586" stroke-miterlimit="10" stroke-linecap="round" stroke-linejoin="round"/>
<path d="M21.0549 10.9668C18.8984 11.8839 17.6905 14.2719 18.3144 16.6006L19.6881 21.7272C19.9815 22.8222 21.107 23.4721 22.202 23.1787C23.297 22.8853 23.9469 21.7597 23.6535 20.6647L22.9632 18.0884" stroke="#D7D7D7" stroke-width="2.25586" stroke-miterlimit="10" stroke-linecap="round" stroke-linejoin="round"/>
<path d="M30.8692 15.9708L31.5595 18.5471C31.853 19.6421 32.9785 20.2919 34.0735 19.9985C35.1685 19.7051 35.8183 18.5796 35.5249 17.4846L34.1512 12.3579C33.5272 10.0293 31.2872 8.56523 28.9609 8.84917" stroke="#D7D7D7" stroke-width="2.25586" stroke-miterlimit="10" stroke-linecap="round" stroke-linejoin="round"/>
<path d="M27.0428 33.3044L25.6177 27.9857L23.12 28.6549C22.615 28.7903 22.1447 28.3456 22.2516 27.8338L24.0978 22.3137L23.1704 18.8522" stroke="#D7D7D7" stroke-width="2.25586" stroke-miterlimit="10" stroke-linecap="round" stroke-linejoin="round"/>
<path d="M31.0723 16.7343L31.9997 20.1958L36.3586 24.0532C36.7071 24.443 36.5223 25.0632 36.0173 25.1985L33.5196 25.8678L34.7653 30.517" stroke="#D7D7D7" stroke-width="2.25586" stroke-miterlimit="10" stroke-linecap="round" stroke-linejoin="round"/>
<path d="M30.7729 31.4208L29.6758 27.3265" stroke="#D7D7D7" stroke-width="2.25586" stroke-miterlimit="10" stroke-linecap="round" stroke-linejoin="round"/>
<path d="M18.9315 5.39451C18.7957 6.13157 18.8171 6.90969 19.024 7.6818C19.7682 10.4588 22.6224 12.1066 25.3994 11.3626C28.1764 10.6186 29.8242 7.76421 29.0802 4.98725C28.3361 2.21029 25.4818 0.562458 22.7048 1.30644C22.2597 1.4257 21.844 1.5997 21.4622 1.81852" stroke="#D7D7D7" stroke-width="2.25586" stroke-miterlimit="10" stroke-linecap="round" stroke-linejoin="round"/>
<path d="M38.4999 75.8721C51.0686 75.8721 61.2576 65.6831 61.2576 53.1144C61.2576 40.5457 51.0686 30.3567 38.4999 30.3567C25.9312 30.3567 15.7422 40.5457 15.7422 53.1144C15.7422 65.6831 25.9312 75.8721 38.4999 75.8721Z" stroke="#D7D7D7" stroke-width="2.25586" stroke-miterlimit="10" stroke-linecap="round" stroke-linejoin="round"/>
<path d="M56.5375 39.2395L48.003 45.2642C47.5085 45.6132 47.2679 46.222 47.3898 46.8147L48.0425 49.9857C48.145 50.4835 48.4892 50.8973 48.9601 51.0889L51.0425 51.9359C51.7501 52.2238 52.1348 52.9912 51.942 53.7304L51.1618 56.7214C51.0673 57.0834 50.8428 57.398 50.5312 57.6051L45.975 60.6323C45.3719 61.0329 45.1344 61.8029 45.4072 62.4737L46.8033 65.9074C47.0366 66.4811 47.5942 66.8563 48.2135 66.8563H56.6395" stroke="#D7D7D7" stroke-width="2.25586" stroke-miterlimit="10" stroke-linecap="round" stroke-linejoin="round"/>
<path d="M31.3281 48.6366H31.7752" stroke="#D7D7D7" stroke-width="2.25586" stroke-miterlimit="10" stroke-linecap="round" stroke-linejoin="round"/>
<path d="M54.7422 61.402H55.1893" stroke="#D7D7D7" stroke-width="2.25586" stroke-miterlimit="10" stroke-linecap="round" stroke-linejoin="round"/>
<path d="M53.0547 46.2029H53.5018" stroke="#D7D7D7" stroke-width="2.25586" stroke-miterlimit="10" stroke-linecap="round" stroke-linejoin="round"/>
<path d="M24.543 57.8257H24.9899" stroke="#D7D7D7" stroke-width="2.25586" stroke-miterlimit="10" stroke-linecap="round" stroke-linejoin="round"/>
<path d="M27.7734 67.7366H28.2204" stroke="#D7D7D7" stroke-width="2.25586" stroke-miterlimit="10" stroke-linecap="round" stroke-linejoin="round"/>
<path d="M22.2363 48.7858H22.6833" stroke="#D7D7D7" stroke-width="2.25586" stroke-miterlimit="10" stroke-linecap="round" stroke-linejoin="round"/>
<path d="M44.939 74.9466L39.5039 71.547" stroke="#D7D7D7" stroke-width="2.25586" stroke-miterlimit="10" stroke-linecap="round" stroke-linejoin="round"/>
<path d="M35.7733 69.2145L33.9357 68.0651C33.6304 67.8742 33.418 67.5652 33.3493 67.2118L32.3903 62.2892C32.2939 61.7947 32.4921 61.2889 32.8989 60.9916L37.2274 57.8269C37.8866 57.3449 37.9433 56.3815 37.3449 55.8257L34.8039 53.4652C34.2775 52.9761 34.2477 52.1527 34.7377 51.6271L39.7576 46.2401C40.2561 45.7052 40.2152 44.8643 39.6672 44.3802L37.0731 42.0884C36.6343 41.7007 35.9903 41.6544 35.5005 41.9753L33.551 43.2527C33.1935 43.4871 32.7437 43.5305 32.3478 43.369L28.4768 41.79C27.9534 41.5766 27.6281 41.0494 27.6719 40.4859L28.2723 32.7795" stroke="#D7D7D7" stroke-width="2.25586" stroke-miterlimit="10" stroke-linecap="round" stroke-linejoin="round"/>
</svg>
