<svg width="88" height="88" viewBox="0 0 88 88" fill="none" xmlns="http://www.w3.org/2000/svg">
<path d="M27.0083 48.3689C26.6079 48.3689 26.2832 48.0442 26.2832 47.6437V43.1337C26.2832 42.7332 26.6079 42.4086 27.0083 42.4086C27.4088 42.4086 27.7335 42.7332 27.7335 43.1337V47.6437C27.7335 48.0442 27.4088 48.3689 27.0083 48.3689Z" fill="#D7D7D7"/>
<path d="M40.4439 48.3689C40.0434 48.3689 39.7188 48.0442 39.7188 47.6437V43.1337C39.7188 42.7332 40.0434 42.4086 40.4439 42.4086C40.8444 42.4086 41.169 42.7332 41.169 43.1337V47.6437C41.169 48.0442 40.8444 48.3689 40.4439 48.3689Z" fill="#D7D7D7"/>
<path d="M46.5345 77.3555H20.9165C16.939 77.3555 13.7031 74.1188 13.7031 70.1404V57.1054C13.7031 52.5583 17.4017 48.859 21.9478 48.859H23.9553C24.3558 48.859 24.6804 49.1837 24.6804 49.5841C24.6804 49.9846 24.3558 50.3093 23.9553 50.3093H21.9478C18.2014 50.3093 15.1534 53.358 15.1534 57.1054V70.1404C15.1534 73.3192 17.7387 75.9053 20.9165 75.9053H46.5345C46.8202 75.9053 47.107 75.8841 47.3872 75.8427C47.7832 75.7829 48.1522 76.0574 48.2108 76.4535C48.2696 76.8497 47.996 77.2186 47.6 77.2772C47.2495 77.3292 46.891 77.3555 46.5345 77.3555Z" fill="#D7D7D7"/>
<path d="M52.4996 55.0687C52.2105 55.0687 51.9374 54.8947 51.825 54.6096C50.7941 51.9973 48.3131 50.3093 45.5041 50.3093H43.4966C43.0962 50.3093 42.7715 49.9846 42.7715 49.5841C42.7715 49.1837 43.0962 48.859 43.4966 48.859H45.5041C48.9126 48.859 51.9231 50.9072 53.174 54.0773C53.321 54.4498 53.1383 54.871 52.7658 55.018C52.6784 55.0524 52.5881 55.0687 52.4996 55.0687Z" fill="#D7D7D7"/>
<path d="M33.7253 47.5472C29.2218 47.5472 24.2887 42.5658 22.4087 36.1607C21.307 35.3443 19.5666 33.6656 19.1503 31.8655C18.8901 30.7377 19.1321 29.2496 20.0978 28.5867C20.5181 28.2982 21.4161 27.9444 22.7071 28.8171C23.039 29.0414 23.1261 29.4923 22.9016 29.824C22.6773 30.1559 22.2265 30.243 21.8948 30.0185C21.6464 29.8505 21.1889 29.5964 20.9186 29.7824C20.608 29.9955 20.3857 30.7695 20.5633 31.539C20.8488 32.773 22.2257 34.2719 23.4382 35.1146C23.4427 35.1177 23.447 35.1208 23.4515 35.1239C23.5859 35.2178 23.6883 35.3568 23.7347 35.5234C25.3653 41.3535 29.8471 46.0968 33.7253 46.0968C37.6045 46.0968 42.087 41.3535 43.7176 35.5234C43.7643 35.3563 43.8675 35.2166 44.0027 35.1227C44.0065 35.12 44.0103 35.1172 44.0143 35.1146C45.2268 34.2719 46.6035 32.773 46.8892 31.5386C47.0668 30.7693 46.8445 29.9955 46.5339 29.7824C46.2636 29.5968 45.8062 29.8506 45.5577 30.0185C45.2258 30.243 44.775 30.1555 44.5508 29.824C44.3265 29.4923 44.4137 29.0414 44.7454 28.8171C46.0364 27.9442 46.9342 28.2981 47.3546 28.5868C48.3204 29.2498 48.5622 30.7378 48.3022 31.8652C47.8857 33.6656 46.1453 35.3444 45.0436 36.1607C43.1636 42.5658 38.2298 47.5472 33.7253 47.5472Z" fill="#D7D7D7"/>
<path d="M43.301 34.4073C43.2398 34.4073 43.1775 34.3995 43.1157 34.3832C42.7678 34.2912 42.5397 33.9581 42.5801 33.6006C43.2461 27.7048 39.9927 26.9587 35.8737 26.0143C33.5261 25.4759 31.11 24.922 29.4439 23.2668C29.0761 23.8894 28.6254 24.466 28.1582 25.0643C26.7011 26.9297 25.0504 29.0429 25.3211 33.5661C25.3273 33.6039 25.3304 33.6426 25.3304 33.6821C25.3304 34.0779 25.0133 34.3997 24.6192 34.4071C24.3052 34.415 24.0186 34.2196 23.9152 33.9153C23.476 32.6227 22.3951 30.4968 21.8063 29.9504C18.6568 27.0266 20.0872 19.1616 21.2874 17.0945C22.1842 15.5498 23.6527 13.4964 26.0397 13.4964C26.4479 13.4964 26.8735 13.5569 27.3114 13.6767C28.1081 12.0705 30.3545 10.645 33.6856 10.645C35.4258 10.645 37.3087 11.0307 39.282 11.7911C43.7729 13.5219 45.9791 16.079 46.8968 20.6175C47.6793 24.4337 47.2689 27.7101 45.7402 29.8416C45.2669 30.5014 44.8459 31.644 44.4745 32.6521C44.299 33.1282 44.1335 33.5778 43.9673 33.9669C43.8513 34.2388 43.5852 34.4073 43.301 34.4073ZM26.0399 14.9465C24.7756 14.9465 23.6967 15.8336 22.5415 17.8225C21.5404 19.5468 20.407 26.6722 22.793 28.8871C23.1574 29.2254 23.5793 29.8541 23.98 30.5705C24.4205 27.4929 25.8293 25.6894 27.0153 24.1712C27.695 23.301 28.2822 22.5494 28.6025 21.6894C28.6973 21.4353 28.9257 21.2552 29.1947 21.2225C29.4643 21.1908 29.7287 21.3102 29.8813 21.5342C31.1877 23.4518 33.6213 24.0097 36.1977 24.6006C39.4389 25.3438 43.0266 26.1664 43.9104 30.1539C44.1098 29.7243 44.3253 29.3261 44.562 28.9963C45.8521 27.1974 46.1768 24.3245 45.4759 20.907C44.6591 16.8681 42.7764 14.6922 38.7607 13.1444C36.9545 12.4483 35.2471 12.0953 33.6859 12.0953C30.4502 12.0953 28.6852 13.6391 28.4652 14.7355C28.4226 14.9474 28.2878 15.1294 28.0974 15.2317C27.907 15.3339 27.6808 15.3461 27.4805 15.2643C26.9634 15.0534 26.4787 14.9465 26.0399 14.9465Z" fill="#D7D7D7"/>
<path d="M24.4219 19.6396C24.2983 19.6396 24.1732 19.608 24.0585 19.5415C23.7122 19.3405 23.5943 18.8968 23.7954 18.5503C24.091 18.0408 24.3811 17.614 24.6575 17.2818C24.9134 16.974 25.3708 16.9319 25.6786 17.1881C25.9866 17.4442 26.0284 17.9014 25.7723 18.2093C25.5477 18.4793 25.3046 18.8388 25.0496 19.2781C24.9152 19.5102 24.672 19.6396 24.4219 19.6396Z" fill="#D7D7D7"/>
<path d="M41.9687 65.6016C41.8153 65.6016 41.6632 65.5529 41.536 65.4582L33.2925 59.328C32.9926 59.105 32.9113 58.6905 33.1048 58.3708L39.8222 47.2689C39.9233 47.102 40.0872 46.9827 40.2772 46.9382C40.4671 46.894 40.6671 46.9275 40.8316 47.0324L43.8834 48.9728C44.1144 49.1196 44.2432 49.3843 44.216 49.6567L42.6901 64.9484C42.6642 65.2083 42.5004 65.4342 42.2615 65.5397C42.1678 65.5811 42.0679 65.6016 41.9687 65.6016ZM34.6867 58.5574L41.3742 63.5306L42.7286 49.957L40.6792 48.6538L34.6867 58.5574Z" fill="#D7D7D7"/>
<path d="M25.4815 65.6015C25.3821 65.6015 25.2825 65.5811 25.1886 65.5397C24.9497 65.4341 24.7859 65.2083 24.76 64.9484L23.2341 49.6567C23.2069 49.3843 23.3355 49.1196 23.5666 48.9728L26.6184 47.0323C26.7829 46.9277 26.983 46.894 27.1729 46.9381C27.3628 46.9827 27.527 47.1019 27.6279 47.2688L34.3453 58.3708C34.5386 58.6904 34.4575 59.105 34.1576 59.3279L25.9141 65.4582C25.7871 65.5527 25.6348 65.6015 25.4815 65.6015ZM24.7215 49.957L26.0758 63.5306L32.7633 58.5574L26.7709 48.6538L24.7215 49.957Z" fill="#D7D7D7"/>
<path d="M36.2285 65.4333H31.2227C30.8812 65.4333 30.5859 65.1951 30.5139 64.8613L29.7507 61.3279C29.6907 61.05 29.7987 60.7626 30.0268 60.593L33.2927 58.1642C33.5495 57.9733 33.9013 57.9733 34.1581 58.1642L37.4243 60.593C37.6525 60.7626 37.7604 61.05 37.7003 61.3279L36.9372 64.8613C36.8651 65.1951 36.5699 65.4333 36.2285 65.4333ZM31.8079 63.983H35.6433L36.1844 61.4781L33.7255 59.6497L31.2668 61.4781L31.8079 63.983Z" fill="#D7D7D7"/>
<path d="M37.3111 77.3551H30.1391C29.9353 77.3551 29.7411 77.2693 29.6037 77.1189C29.4664 76.9685 29.3985 76.7673 29.4171 76.5643L30.5002 64.6425C30.5341 64.269 30.8474 63.983 31.2224 63.983H36.2283C36.6033 63.983 36.9165 64.269 36.9505 64.6425L38.0337 76.5643C38.0521 76.7673 37.9844 76.9685 37.847 77.1189C37.7092 77.2693 37.515 77.3551 37.3111 77.3551ZM30.933 75.9048H36.5171L35.5657 65.4333H31.8845L30.933 75.9048Z" fill="#D7D7D7"/>
<path d="M70.4866 77.355H48.1534C46.0527 77.355 44.3438 75.6461 44.3438 73.5452V57.4282C44.3438 55.3275 46.0527 53.6184 48.1534 53.6184H70.4866C72.5873 53.6184 74.2964 55.3274 74.2964 57.4282V73.5452C74.2962 75.6461 72.5873 77.355 70.4866 77.355ZM48.1534 55.069C46.8524 55.069 45.794 56.1274 45.794 57.4284V73.5454C45.794 74.8463 46.8524 75.9049 48.1534 75.9049H70.4866C71.7875 75.9049 72.846 74.8465 72.846 73.5454V57.4284C72.846 56.1274 71.7875 55.069 70.4866 55.069H48.1534Z" fill="#D7D7D7"/>
<path d="M49.7875 70.9312C49.6019 70.9312 49.4163 70.8604 49.2748 70.7188C48.9917 70.4357 48.9917 69.9764 49.2748 69.6932L56.717 62.2508C56.9984 61.9695 57.454 61.9674 57.7379 62.2464L62.0809 66.5118L68.3378 60.2547C68.6209 59.9716 69.0801 59.9716 69.3634 60.2547C69.6465 60.5379 69.6465 60.997 69.3634 61.2802L62.5982 68.0454C62.317 68.3268 61.8614 68.3288 61.5773 68.0501L57.2343 63.7845L50.3002 70.7186C50.1588 70.8604 49.9731 70.9312 49.7875 70.9312Z" fill="#D7D7D7"/>
<path d="M68.2602 65.865C68.2279 65.865 68.1951 65.8628 68.1621 65.8583C67.7653 65.8045 67.487 65.4393 67.5408 65.0424L68.0048 61.614L64.5764 62.0781C64.1796 62.1324 63.8144 61.8536 63.7606 61.4568C63.7068 61.0599 63.985 60.6947 64.3819 60.6409L68.754 60.0489C68.9785 60.0185 69.204 60.0948 69.364 60.2547C69.524 60.4149 69.6002 60.6404 69.5698 60.8646L68.9778 65.2368C68.9287 65.6008 68.6176 65.865 68.2602 65.865Z" fill="#D7D7D7"/>
<path d="M59.3207 52.6682C53.38 52.6682 48.5469 47.835 48.5469 41.8943C48.5469 35.9537 53.38 31.1204 59.3207 31.1204C65.2614 31.1204 70.0945 35.9535 70.0945 41.8943C70.0945 47.835 65.2614 52.6682 59.3207 52.6682ZM59.3207 32.5708C54.1797 32.5708 49.9972 36.7534 49.9972 41.8945C49.9972 47.0355 54.1797 51.2181 59.3207 51.2181C64.4616 51.2181 68.6442 47.0356 68.6442 41.8945C68.6442 36.7534 64.4616 32.5708 59.3207 32.5708Z" fill="#D7D7D7"/>
<path d="M59.4499 46.7046C58.2256 46.7046 57.0253 46.1608 56.2388 45.2502C55.9772 44.9472 56.0105 44.4891 56.3137 44.2275C56.6167 43.9656 57.0749 43.9995 57.3365 44.3025C57.8513 44.8985 58.6414 45.2545 59.4499 45.2545C59.7301 45.2545 61.1281 45.2004 61.1281 44.1301C61.1281 43.3096 60.2861 42.8959 59.3762 42.571L59.0902 42.4682C58.2702 42.1759 56.564 41.568 56.49 39.7409C56.462 39.0534 56.6831 38.4446 57.1291 37.9802C57.9273 37.1492 59.1074 37.0846 59.4499 37.0846C60.6645 37.0846 61.5253 37.4564 62.3278 38.3274C62.5992 38.622 62.5803 39.0808 62.2857 39.352C61.9913 39.6234 61.5323 39.6045 61.2611 39.3099C60.7273 38.7301 60.2701 38.5347 59.4499 38.5347C59.0611 38.5347 58.4939 38.6526 58.1751 38.9847C58.002 39.1648 57.9271 39.3863 57.939 39.682C57.9709 40.4678 58.6684 40.778 59.5769 41.1018L59.8636 41.205C60.6061 41.47 62.5784 42.1742 62.5784 44.1299C62.5784 45.9085 61.0071 46.7046 59.4499 46.7046Z" fill="#D7D7D7"/>
<path d="M59.4497 38.5345C59.0493 38.5345 58.7246 38.2098 58.7246 37.8094V36.3737C58.7246 35.9732 59.0493 35.6486 59.4497 35.6486C59.8502 35.6486 60.1749 35.9732 60.1749 36.3737V37.8094C60.1749 38.2098 59.8502 38.5345 59.4497 38.5345Z" fill="#D7D7D7"/>
<path d="M59.4497 48.1401C59.0493 48.1401 58.7246 47.8154 58.7246 47.415V45.9793C58.7246 45.5788 59.0493 45.2542 59.4497 45.2542C59.8502 45.2542 60.1749 45.5788 60.1749 45.9793V47.415C60.1749 47.8154 59.8502 48.1401 59.4497 48.1401Z" fill="#D7D7D7"/>
<path d="M17.74 41.5019C17.5544 41.5019 17.3687 41.4311 17.2273 41.2895L16.3158 40.378C16.0327 40.0948 16.0327 39.6357 16.3158 39.3524C16.5989 39.0694 17.0582 39.0694 17.3414 39.3524L18.2529 40.2639C18.5359 40.5471 18.5359 41.0062 18.2529 41.2895C18.1111 41.4311 17.9254 41.5019 17.74 41.5019Z" fill="#D7D7D7"/>
<path d="M21.0196 44.7808C20.834 44.7808 20.6485 44.71 20.5069 44.5684L19.5953 43.6569C19.312 43.3738 19.312 42.9146 19.5953 42.6315C19.8783 42.3483 20.3376 42.3483 20.6207 42.6315L21.5323 43.543C21.8155 43.826 21.8155 44.2853 21.5323 44.5684C21.3908 44.71 21.2052 44.7808 21.0196 44.7808Z" fill="#D7D7D7"/>
<path d="M20.1078 41.5019C19.9222 41.5019 19.7366 41.4311 19.5951 41.2894C19.312 41.0063 19.312 40.5471 19.5951 40.264L20.5067 39.3526C20.79 39.0695 21.2492 39.0695 21.5322 39.3526C21.8152 39.6356 21.8152 40.0949 21.5322 40.378L20.6205 41.2894C20.4789 41.4311 20.2934 41.5019 20.1078 41.5019Z" fill="#D7D7D7"/>
<path d="M16.8285 44.7807C16.6429 44.7807 16.4573 44.7099 16.3158 44.5683C16.0327 44.285 16.0327 43.826 16.3158 43.5427L17.2273 42.6313C17.5104 42.3482 17.9696 42.3482 18.2529 42.6313C18.5359 42.9145 18.5359 43.3736 18.2529 43.6568L17.3414 44.5683C17.1996 44.7099 17.014 44.7807 16.8285 44.7807Z" fill="#D7D7D7"/>
<path d="M55.6853 18.6348C55.4997 18.6348 55.314 18.564 55.1726 18.4224L54.2611 17.511C53.9781 17.2277 53.9781 16.7686 54.2611 16.4854C54.5442 16.2023 55.0035 16.2023 55.2867 16.4854L56.1982 17.3968C56.4812 17.6801 56.4812 18.1392 56.1982 18.4224C56.0565 18.564 55.8709 18.6348 55.6853 18.6348Z" fill="#D7D7D7"/>
<path d="M58.9646 21.9137C58.779 21.9137 58.5933 21.8428 58.4519 21.7012L57.5404 20.7898C57.2574 20.5065 57.2574 20.0474 57.5404 19.7642C57.8235 19.4811 58.2828 19.4811 58.566 19.7642L59.4775 20.6756C59.7605 20.9589 59.7605 21.418 59.4775 21.7012C59.3357 21.8427 59.15 21.9137 58.9646 21.9137Z" fill="#D7D7D7"/>
<path d="M58.0531 18.6348C57.8675 18.6348 57.6819 18.564 57.5404 18.4224C57.2574 18.1392 57.2574 17.6801 57.5404 17.3968L58.4519 16.4854C58.735 16.2023 59.1942 16.2023 59.4775 16.4854C59.7605 16.7686 59.7605 17.2277 59.4775 17.511L58.566 18.4224C58.4242 18.564 58.2386 18.6348 58.0531 18.6348Z" fill="#D7D7D7"/>
<path d="M54.7738 21.9137C54.5882 21.9137 54.4026 21.8428 54.2611 21.7012C53.9781 21.418 53.9781 20.9589 54.2611 20.6756L55.1726 19.7642C55.4557 19.4811 55.9149 19.4811 56.1982 19.7642C56.4812 20.0474 56.4812 20.5065 56.1982 20.7898L55.2867 21.7012C55.1451 21.8427 54.9595 21.9137 54.7738 21.9137Z" fill="#D7D7D7"/>
</svg>
